# xmcd
#
# Track frame offsets: 
#        150
#        18459
#        36917
#        55020
#        70123
#        90166
#        104004
#        116484
#        130014
#        145595
#
# Disc length: 2177 seconds
#
# Revision: 0
# Processed by: cddbd v1.5.2PL0 Copyright (c) Steve Scherf et al.
# Submitted via: ExactAudioCopy v0.95b4
#
DISCID=7c087f0a
DTITLE=Vince Gill - These Days - CD 01
DYEAR=2006
DGENRE=Country
TTITLE0=Workin' On A Big Chill
TTITLE1=Love's Standin'
TTITLE2=Cowboy Up (Feat. Gretchen Wilson)
TTITLE3=Sweet Thing
TTITLE4=Bet It All On You
TTITLE5=Nothin' For A Broken Heart (featuring Rodney Crowell)
TTITLE6=Son Of A Ramblin' Man (featuring Del McCoury)
TTITLE7=Smilin' Song (featuring Michael McDonald)
TTITLE8=The Rhythm Of The Pourin' Rain (featuring Bekka Bramlett)
TTITLE9=Nothin' Left To Say
EXTD=
EXTT0=
EXTT1=
EXTT2=
EXTT3=
EXTT4=
EXTT5=
EXTT6=
EXTT7=
EXTT8=
EXTT9=
PLAYORDER=
